HIERARCHY
ROOT Hips
{
  OFFSET 15.2955 96.0401 2.55592
  CHANNELS 6 Xposition Yposition Zposition Zrotation Xrotation Yrotation
  JOINT Chest
  {
    OFFSET 0 10.5691 -1.07959
    CHANNELS 6 Xposition Yposition Zposition Zrotation Xrotation Yrotation
    JOINT Chest2
    {
      OFFSET 0 11.6675 1.08235
      CHANNELS 6 Xposition Yposition Zposition Zrotation Xrotation Yrotation
      JOINT Chest3
      {
        OFFSET 0 10.5876 0
        CHANNELS 6 Xposition Yposition Zposition Zrotation Xrotation Yrotation
        JOINT Chest4
        {
          OFFSET 0 10.5876 0
          CHANNELS 6 Xposition Yposition Zposition Zrotation Xrotation Yrotation
          JOINT Neck
          {
            OFFSET 0 14.88 0
            CHANNELS 6 Xposition Yposition Zposition Zrotation Xrotation Yrotation
            JOINT Head
            {
              OFFSET 0 9.61473 2.16553
              CHANNELS 6 Xposition Yposition Zposition Zrotation Xrotation Yrotation
              End Site
              {
                OFFSET 0 0 0
              }
            }
          }
          JOINT RightCollar
          {
            OFFSET -3.23953 8.30385 0
            CHANNELS 6 Xposition Yposition Zposition Zrotation Xrotation Yrotation
            JOINT RightShoulder
            {
              OFFSET -15.1725 0 0
              CHANNELS 6 Xposition Yposition Zposition Zrotation Xrotation Yrotation
              JOINT RightElbow
              {
                OFFSET -32.4113 0 0
                CHANNELS 6 Xposition Yposition Zposition Zrotation Xrotation Yrotation
                JOINT RightWrist
                {
                  OFFSET -26.4919 0 1.08131
                  CHANNELS 6 Xposition Yposition Zposition Zrotation Xrotation Yrotation
                  End Site
                  {
                    OFFSET 0 0 0
                  }
                }
              }
            }
          }
          JOINT LeftCollar
          {
            OFFSET 3.23953 8.30385 0
            CHANNELS 6 Xposition Yposition Zposition Zrotation Xrotation Yrotation
            JOINT LeftShoulder
            {
              OFFSET 15.1725 0 0
              CHANNELS 6 Xposition Yposition Zposition Zrotation Xrotation Yrotation
              JOINT LeftElbow
              {
                OFFSET 32.4113 0 0
                CHANNELS 6 Xposition Yposition Zposition Zrotation Xrotation Yrotation
                JOINT LeftWrist
                {
                  OFFSET 26.4919 0 1.08131
                  CHANNELS 6 Xposition Yposition Zposition Zrotation Xrotation Yrotation
                  End Site
                  {
                    OFFSET 0 0 0
                  }
                }
              }
            }
          }
        }
      }
    }
  }
  JOINT RightHip
  {
    OFFSET -8.63674 0.00547028 0
    CHANNELS 6 Xposition Yposition Zposition Zrotation Xrotation Yrotation
    JOINT RightKnee
    {
      OFFSET -1.00523e-005 -44.4933 -2.13963
      CHANNELS 6 Xposition Yposition Zposition Zrotation Xrotation Yrotation
      JOINT RightAnkle
      {
        OFFSET 0 -43.4408 -3.54051
        CHANNELS 6 Xposition Yposition Zposition Zrotation Xrotation Yrotation
        JOINT RightToe
        {
          OFFSET 0 -8.3927 19.1252
          CHANNELS 6 Xposition Yposition Zposition Zrotation Xrotation Yrotation
          End Site
          {
            OFFSET 0 0 0
          }
        }
      }
    }
  }
  JOINT LeftHip
  {
    OFFSET 8.63674 0.00547028 0
    CHANNELS 6 Xposition Yposition Zposition Zrotation Xrotation Yrotation
    JOINT LeftKnee
    {
      OFFSET -4.29536e-005 -44.4933 -2.13961
      CHANNELS 6 Xposition Yposition Zposition Zrotation Xrotation Yrotation
      JOINT LeftAnkle
      {
        OFFSET 0 -43.4407 -3.54051
        CHANNELS 6 Xposition Yposition Zposition Zrotation Xrotation Yrotation
        JOINT LeftToe
        {
          OFFSET 0 -8.3927 19.1252
          CHANNELS 6 Xposition Yposition Zposition Zrotation Xrotation Yrotation
          End Site
          {
            OFFSET 0 0 0
          }
        }
      }
    }
  }
}
MOTION
Frames:	5
Frame Time:	0.0333333
15.2929 96.0461 2.55513 -0.00443084 -0.00121468 -90.0064 0 10.5691 -1.07959 0.000553149 0.0059346 0.00136888 -3.59712e-014 11.6675 1.08235 0.00110712 0.0118686 0.00273982 -4.44089e-016 10.5876 2.12362e-009 0.00110713 0.0118686 0.00273593 4.44089e-016 10.5876 2.12362e-009 0.00110713 0.0118686 0.00273997 6.95328e-006 14.88 -3.10979e-006 -0.0376532 -0.140322 -0.0138089 -3.45319e-008 9.61473 2.16553 0.0264518 0.129614 -0.0304484 -3.23953 8.30385 0 7.76503e-019 3.60791e-018 -0 -15.1725 -4.76837e-006 1.90901e-006 -10.3964 -39.0491 -5.96867 -32.4113 -1.16402e-006 1.57567e-007 9.53573 5.81374 5.29924 -26.4919 1.66513e-006 1.08131 -0.1428 -0.0111002 6.88576 3.23953 8.30385 0 7.76503e-019 3.60791e-018 -0 15.1725 -4.76837e-006 -1.90568e-006 1.11514 -30.1278 2.44553 32.4113 2.16297e-006 -3.05838e-006 -13.737 2.32469 -0.819964 26.4919 -5.80541e-006 1.08131 17.2935 -1.23727 -6.3935 -8.63674 0.00547028 9.53674e-007 -8.92009 -2.55553 -9.64985 -1.00523e-005 -44.4933 -2.13963 9.24278 2.80284 8.95088 -5.94196e-006 -43.4408 -3.54051 -0.174307 1.56032 -0.13467 5.51068e-006 -8.3927 19.1252 -0.1403 -0.113253 0.338326 8.63674 0.00547028 -1.90735e-006 4.20524 -4.11056 4.37463 -4.29536e-005 -44.4933 -2.13961 -4.31787 4.71166 -3.81889 3.66938e-007 -43.4407 -3.54051 0.00829829 -0.285766 -0.196127 -6.77234e-008 -8.3927 19.1252 0.165422 0.264667 0.0168398 
15.274 96.0896 2.54778 -0.0378137 -0.0555256 -90.005 0 10.5691 -1.07959 0.0198936 0.0462666 0.0188784 -3.55271e-014 11.6675 1.08235 0.0397709 0.0925477 0.0377624 0 10.5876 2.12362e-009 0.0397709 0.0925477 0.037733 0 10.5876 2.12362e-009 0.0397708 0.0925477 0.0377604 6.95328e-006 14.88 -3.10979e-006 -0.63015 -0.996058 -0.0676386 -3.45319e-008 9.61473 2.16553 0.439636 0.921958 -0.348568 -3.23953 8.30385 -1.77636e-015 -9.70273e-036 -2.2373e-017 -2.48481e-017 -15.1725 -4.76837e-006 1.90901e-006 -10.6121 -38.7839 -6.07432 -32.4113 -1.16402e-006 1.57567e-007 9.76205 6.52526 5.12954 -26.4919 1.66513e-006 1.08131 -0.745898 -0.0589845 7.3373 3.23953 8.30385 0 -9.70273e-036 -2.2373e-017 -2.48481e-017 15.1725 -4.76837e-006 -1.90568e-006 0.805224 -30.8518 2.03706 32.4113 2.16297e-006 -3.05838e-006 -13.5451 2.41146 -0.556765 26.4919 -5.80541e-006 1.08131 16.9359 -1.22109 -6.45857 -8.63674 0.00547028 9.53674e-007 -9.04602 -2.8461 -9.60104 -1.00523e-005 -44.4933 -2.13963 9.27415 3.35818 8.78537 -5.94196e-006 -43.4408 -3.54051 0.951006 4.68418 -1.35818 5.51068e-006 -8.3927 19.1252 1.93616 -6.38018 1.08212 8.63674 0.00547028 -1.90735e-006 4.04241 -4.08164 4.29384 -4.29536e-005 -44.4933 -2.13961 -3.93177 4.71104 -2.843 3.66938e-007 -43.4407 -3.54051 -0.451047 -0.00601312 -1.35633 -6.77234e-008 -8.3927 19.1252 0.17289 0.00648748 0.779204 
15.2726 96.099 2.53434 -0.0506421 -0.0813111 -90.0297 -4.44089e-016 10.5691 -1.07959 0.112507 0.0400087 0.0633667 -3.55271e-014 11.6675 1.08235 0.224969 0.080149 0.126668 4.44089e-016 10.5876 2.12362e-009 0.224969 0.0801488 0.12665 0 10.5876 2.12362e-009 0.224968 0.0801489 0.126649 6.95328e-006 14.88 -3.10979e-006 -2.61232 -0.244839 0.197429 -3.45319e-008 9.61473 2.16553 1.7971 0.241612 -0.979909 -3.23953 8.30385 1.77636e-015 -9.93923e-017 -3.10601e-018 -4.96962e-017 -15.1725 -4.76837e-006 1.90901e-006 -11.6084 -38.2809 -6.57266 -32.4113 -1.16402e-006 1.57567e-007 9.92398 6.32367 5.22192 -26.4919 1.66513e-006 1.08131 -0.776211 -0.0601062 7.13375 3.23953 8.30385 0 -9.93923e-017 -3.10601e-018 -4.96962e-017 15.1725 -4.76837e-006 -1.90568e-006 -0.109417 -31.0454 1.57017 32.4113 2.16297e-006 -3.05838e-006 -13.556 2.40129 -0.458626 26.4919 -5.80541e-006 1.08131 17.0414 -1.23054 -6.47001 -8.63674 0.00547028 9.53674e-007 -9.05273 -2.65186 -9.51544 -1.00523e-005 -44.4933 -2.13963 9.27025 3.08404 8.59601 -5.94196e-006 -43.4408 -3.54051 -0.0597006 0.982452 0.428312 5.51068e-006 -8.3927 19.1252 -0.0744801 1.22934 -0.670379 8.63674 0.00547028 -1.90735e-006 3.95807 -4.01054 3.93537 -4.29536e-005 -44.4933 -2.13961 -3.87141 4.49483 -2.4883 3.66938e-007 -43.4407 -3.54051 -0.42128 0.0972733 -1.26269 -6.77234e-008 -8.3927 19.1252 0.418288 -0.235863 2.58033 
15.2803 96.087 2.52663 -0.033147 -0.0755532 -90.0884 0 10.5691 -1.07959 0.00298415 0.0539321 -0.0103178 -3.55271e-014 11.6675 1.08235 0.00597876 0.107837 -0.0206639 4.44089e-016 10.5876 2.12362e-009 0.00597882 0.107837 -0.0206843 0 10.5876 2.12362e-009 0.00597862 0.107837 -0.0206495 6.95328e-006 14.88 -3.10979e-006 -0.427309 -1.13114 -0.0555938 -3.45319e-008 9.61473 2.16553 0.396126 1.07621 -0.268134 -3.23953 8.30385 0 -2.48481e-017 -8.11445e-017 -2.48481e-017 -15.1725 -4.76837e-006 1.90901e-006 -10.2617 -38.6842 -5.85459 -32.4113 -1.16402e-006 1.57567e-007 9.77867 6.39288 5.25549 -26.4919 1.66513e-006 1.08131 -0.348021 -0.0276608 7.34222 3.23953 8.30385 0 -2.48481e-017 -8.11445e-017 -2.48481e-017 15.1725 -4.76837e-006 -1.90568e-006 1.03671 -30.8981 2.41108 32.4113 2.16297e-006 -3.05838e-006 -13.5072 2.37979 -0.663108 26.4919 -5.80541e-006 1.08131 16.8481 -1.20444 -6.38999 -8.63674 0.00547028 9.53674e-007 -9.05163 -3.05989 -9.64321 -1.00523e-005 -44.4933 -2.13963 9.22144 3.95146 8.76441 -5.94196e-006 -43.4408 -3.54051 -1.17543 -0.160601 -0.312161 5.51068e-006 -8.3927 19.1252 -3.09782 4.8535 2.20348 8.63674 0.00547028 -1.90735e-006 3.96744 -4.0967 4.06478 -4.29536e-005 -44.4933 -2.13961 -3.83449 4.6083 -2.48009 3.66938e-007 -43.4407 -3.54051 -0.425401 0.125616 -1.28316 -6.77234e-008 -8.3927 19.1252 0.64369 -0.305892 3.82056 
15.2844 96.1178 2.5104 -0.0964411 -0.0583676 -90.172 4.44089e-016 10.5691 -1.07959 0.00754537 0.0433812 0.0134481 -3.59712e-014 11.6675 1.08235 0.0150807 0.0871999 0.0268919 0 10.5876 2.12362e-009 0.0150807 0.0871999 0.0268639 -4.44089e-016 10.5876 2.12362e-009 0.0150806 0.0871998 0.0268861 6.95328e-006 14.88 -3.10979e-006 -0.376921 -0.699272 -0.124308 -3.45319e-008 9.61473 2.16553 0.46072 0.82729 -0.337791 -3.23953 8.30385 -1.77636e-015 -2.48481e-017 1.23755e-018 1.2424e-017 -15.1725 -4.76837e-006 1.90901e-006 -10.3796 -38.6587 -6.02717 -32.4113 -1.16402e-006 1.57567e-007 9.82709 6.20227 5.35103 -26.4919 1.66513e-006 1.08131 -0.0885701 -0.00694199 7.24951 3.23953 8.30385 -1.77636e-015 -2.48481e-017 1.23755e-018 1.2424e-017 15.1725 -4.76837e-006 -1.90568e-006 0.891232 -30.9154 2.2618 32.4113 2.16297e-006 -3.05838e-006 -13.4487 2.33452 -0.665514 26.4919 -5.80541e-006 1.08131 16.9822 -1.21041 -6.36502 -8.63674 0.00547028 9.53674e-007 -8.96464 -2.64831 -9.64396 -1.00523e-005 -44.4933 -2.13963 9.25191 3.14865 9.18448 -5.94196e-006 -43.4408 -3.54051 -1.08555 0.23182 -0.264842 5.51068e-006 -8.3927 19.1252 -1.99449 4.00165 0.879854 8.63674 0.00547028 -1.90735e-006 3.93407 -3.89261 3.90852 -4.29536e-005 -44.4933 -2.13961 -3.80736 4.29781 -2.45346 3.66938e-007 -43.4407 -3.54051 -0.337481 0.280556 -1.05302 -6.77234e-008 -8.3927 19.1252 0.533293 -0.23245 3.11216 
